<svg xmlns="http://www.w3.org/2000/svg" fill="none" viewBox="0 0 24 24"><defs/><circle cx="12" cy="12" r="12" fill="#02416B"/><circle cx="11.999" cy="12" r="10.648" fill="#EAF3F8"/><circle cx="12" cy="12.004" r="8.028" fill="#fff"/><circle cx="12.001" cy="12.001" r="4.552" fill="#EAF3F8"/><path fill="#02416B" d="M6.001 17.892l5.254-6.723 1.471 1.472-6.725 5.251z"/><path fill="#FF7533" d="M17.895 5.997l-5.17 6.644-1.473-1.472 6.643-5.172z"/><path fill="#000" d="M12.631 6.715h-.376l-.389-.75h-.006c.009.118.013.208.013.27v.48h-.254V5.65h.375l.387.74h.005a4.275 4.275 0 01-.01-.259v-.48h.255v1.063zM18.621 12.922h-.631v-1.064h.631v.231h-.344v.167h.319v.23h-.319v.202h.344v.234zM6.228 12.922h-.34l-.101-.463a2.338 2.338 0 01-.046-.26 3.999 3.999 0 01-.045.247l-.106.476h-.34l-.263-1.064h.278l.115.534c.026.117.044.211.054.281a3.63 3.63 0 01.08-.412l.093-.402h.266l.091.402a4.736 4.736 0 01.08.412c.006-.054.023-.147.051-.28l.118-.535h.277l-.262 1.064zM12.478 18.888a.316.316 0 01-.05.176.332.332 0 01-.145.12.54.54 0 01-.221.041.673.673 0 01-.328-.067v-.255c.054.028.111.05.17.066.06.015.114.023.163.023.043 0 .074-.007.094-.022a.07.07 0 00.03-.057.06.06 0 00-.012-.038.13.13 0 00-.039-.034 1.544 1.544 0 00-.141-.068.693.693 0 01-.157-.092.288.288 0 01-.077-.101.342.342 0 01-.024-.136c0-.098.035-.175.107-.23a.471.471 0 01.293-.082c.11 0 .223.026.337.077l-.088.221a.637.637 0 00-.257-.068c-.038 0-.065.007-.082.02a.06.06 0 00-.025.048c0 .021.01.04.032.056.022.017.08.047.176.09a.48.48 0 01.19.134.285.285 0 01.054.178z"/></svg>