<?xml version="1.0" encoding="utf-8"?>
<!-- Generator: Adobe Illustrator 19.2.0, SVG Export Plug-In . SVG Version: 6.00 Build 0)  -->
<svg version="1.1" id="Layer_1" xmlns="http://www.w3.org/2000/svg" xmlns:xlink="http://www.w3.org/1999/xlink" x="0px" y="0px"
	 viewBox="0 0 167.2 31" style="enable-background:new 0 0 167.2 31;" xml:space="preserve">
<style type="text/css">
	.st0{fill:#FFFFFF;}
	.st1{fill:#FF5200;}
</style>
<g>
	<path class="st0" d="M0,30.3V1.7h7.5l10.8,14.7c0.2,0.3,0.5,0.9,1,1.8c0.5,0.9,1,2,1.6,3.2c-0.2-1.2-0.3-2.2-0.3-3.2
		c-0.1-0.9-0.1-1.7-0.1-2.5V1.7h7.5v28.6h-7.5L9.7,15.5c-0.2-0.3-0.6-0.9-1-1.8c-0.5-0.9-1-2-1.6-3.2c0.2,1.2,0.3,2.3,0.3,3.2
		c0.1,0.9,0.1,1.7,0.1,2.5v14.1H0z"/>
	<path class="st0" d="M52.7,10.5v19.7h-6.4v-3.2c-0.9,1.4-1.9,2.4-3.1,3c-1.1,0.6-2.5,1-4,1c-2.6,0-4.7-1-6.3-2.9
		c-1.6-1.9-2.4-4.5-2.4-7.7c0-3.2,0.8-5.8,2.5-7.7c1.6-1.9,3.9-2.8,6.7-2.8c1.5,0,2.8,0.3,3.8,0.9c1.1,0.6,2,1.6,2.8,2.9v-3.2H52.7z
		 M46.6,20.4c0-1.5-0.4-2.8-1.2-3.7c-0.8-0.9-1.9-1.3-3.4-1.3c-1.4,0-2.5,0.4-3.3,1.3c-0.8,0.9-1.2,2.1-1.2,3.7
		c0,1.5,0.4,2.7,1.2,3.6c0.8,0.9,1.9,1.3,3.3,1.3c1.4,0,2.5-0.4,3.4-1.3C46.2,23.1,46.6,21.9,46.6,20.4z"/>
	<path class="st0" d="M77.2,10.5v10.1c0,2.2-0.2,3.9-0.5,5c-0.4,1.1-1,2-1.8,2.9c-0.9,0.9-2,1.5-3.3,2C70.3,30.8,68.8,31,67,31
		c-1.7,0-3.3-0.2-4.6-0.6c-1.3-0.4-2.4-1.1-3.3-2c-0.8-0.8-1.4-1.8-1.8-2.8c-0.4-1.1-0.5-2.7-0.5-5V10.5h6.6v10.5
		c0,1.7,0.3,2.8,0.8,3.6c0.5,0.7,1.4,1.1,2.7,1.1c1.2,0,2.1-0.4,2.7-1.1c0.5-0.7,0.8-1.9,0.8-3.6V10.5H77.2z"/>
	<path class="st0" d="M82.3,30.3V15.5h-2.9v-4.9h2.9V4.7h6.9v5.9h2.9v4.9h-2.9v14.8H82.3z"/>
	<path class="st0" d="M95.2,4.4c0-1.1,0.4-2,1.1-2.7C97.1,1,98,0.6,99,0.6c1.1,0,2,0.4,2.7,1.1c0.7,0.7,1.1,1.6,1.1,2.7
		c0,1.1-0.4,2-1.1,2.8c-0.7,0.8-1.7,1.1-2.7,1.1c-1,0-1.9-0.4-2.7-1.2C95.6,6.4,95.2,5.4,95.2,4.4z M95.6,30.3V10.5h7v19.7H95.6z"/>
	<path class="st0" d="M121,17c-0.7-0.6-1.3-1-2-1.3c-0.6-0.3-1.3-0.4-2-0.4c-1.4,0-2.5,0.5-3.3,1.4c-0.8,0.9-1.2,2.1-1.2,3.7
		c0,1.5,0.4,2.7,1.3,3.6c0.8,0.9,2,1.3,3.4,1.3c0.7,0,1.4-0.1,2-0.4c0.6-0.3,1.2-0.7,1.8-1.3v6c-0.8,0.5-1.7,0.8-2.5,1
		c-0.8,0.2-1.7,0.3-2.6,0.3c-3,0-5.5-1-7.4-2.9c-1.9-1.9-2.8-4.5-2.8-7.7c0-3.1,1-5.6,2.9-7.6c1.9-2,4.4-2.9,7.4-2.9
		c1,0,1.9,0.1,2.7,0.3c0.8,0.2,1.6,0.5,2.3,0.9V17z"/>
	<path class="st1" d="M124.8,30.3V1.7h17.5v6.3h-9.9v5h9.4V19h-9.4v4.8h9.9v6.4H124.8z"/>
	<path class="st1" d="M167.2,0v30.3h-6.4v-3.2c-0.9,1.3-1.9,2.3-3,3c-1.1,0.7-2.3,1-3.7,1c-2.8,0-5-1-6.6-2.9
		c-1.6-1.9-2.5-4.5-2.5-7.7c0-3.1,0.8-5.7,2.5-7.6c1.6-1.9,3.8-2.9,6.4-2.9c1.7,0,3,0.3,4.1,0.9c1,0.6,2,1.6,2.8,3
		c-0.1-0.5-0.1-1-0.2-1.6c0-0.6-0.1-1.2-0.1-1.9V0H167.2z M161,20.4c0-1.5-0.4-2.7-1.2-3.6c-0.8-0.9-1.9-1.3-3.3-1.3
		c-1.4,0-2.5,0.4-3.3,1.3c-0.8,0.9-1.2,2.1-1.2,3.6c0,1.5,0.4,2.8,1.2,3.6c0.8,0.9,1.9,1.3,3.3,1.3c1.4,0,2.5-0.4,3.3-1.3
		C160.6,23.2,161,22,161,20.4z"/>
</g>
</svg>
